<?xml version="1.0" encoding="UTF-8" standalone="no"?>
<!DOCTYPE svg PUBLIC "-//W3C//DTD SVG 1.1//EN" "http://www.w3.org/Graphics/SVG/1.1/DTD/svg11.dtd">
<svg width="100%" height="100%" viewBox="0 0 500 500" version="1.1" xmlns="http://www.w3.org/2000/svg" xmlns:xlink="http://www.w3.org/1999/xlink" xml:space="preserve" xmlns:serif="http://www.serif.com/" style="fill-rule:evenodd;clip-rule:evenodd;stroke-linejoin:round;stroke-miterlimit:2;">
    <g id="text839">
    </g>
    <g transform="matrix(-0.907386,0.827832,-0.907386,-0.827832,567.761,64.7562)">
        <path d="M345.159,117.089C368.812,140.576 392.465,164.063 416.118,187.551L321.499,188.327L249.358,116.187L345.159,117.089Z" style="fill:rgb(0,3,98);"/>
    </g>
    <g transform="matrix(0.934582,0.806183,-0.872714,0.842086,71.8996,-0.376467)">
        <path d="M246.504,117.195L312.382,187.744L119.862,187.294C143.859,164.157 167.856,141.02 191.853,117.883L246.504,117.195Z" style="fill:rgb(0,50,164);"/>
    </g>
    <path d="M292.689,375.025C292.734,413.35 292.78,451.675 292.825,490L200,409.557L200,297.039L292.689,375.025Z" style="fill:rgb(0,86,253);"/>
    <path d="M236.071,175L105.152,175L190.582,95.77L253.873,159.061L236.071,175Z" style="fill:rgb(0,80,255);"/>
    <g transform="matrix(0.423638,-0.351509,0.393837,0.379257,209.352,400.512)">
        <path d="M416.118,187.551L127.513,193.3L198.052,115.703L345.159,117.089L416.118,187.551Z" style="fill:rgb(66,0,164);"/>
    </g>
    <g transform="matrix(-0.406477,-0.370117,0.408276,-0.35833,431.543,436.841)">
        <path d="M119.862,187.294C143.859,164.157 167.856,141.02 191.853,117.883L311.086,116.382L242.225,187.508L119.862,187.294Z" style="fill:rgb(157,0,147);"/>
    </g>
    <g transform="matrix(-0.406477,-0.370117,0.408276,-0.35833,431.543,436.841)">
        <path d="M242.225,187.508L311.086,116.382L344.528,115.961C368.868,139.912 393.208,163.863 417.548,187.815L242.225,187.508Z" style="fill:rgb(101,0,157);"/>
    </g>
    <g transform="matrix(-0.707107,-0.707107,0.707107,-0.707107,389.665,294.853)">
        <path d="M276.8,126.043C247.826,97.069 218.852,68.095 189.877,39.121L192.038,0L281.546,0L276.8,126.043Z" style="fill:rgb(34,0,231);"/>
    </g>
</svg>
